<?xml version="1.0" encoding="UTF-8" standalone="no"?>
<!-- Created with Inkscape (http://www.inkscape.org/) -->

<svg
   xmlns:dc="http://purl.org/dc/elements/1.1/"
   xmlns:cc="http://creativecommons.org/ns#"
   xmlns:rdf="http://www.w3.org/1999/02/22-rdf-syntax-ns#"
   xmlns:svg="http://www.w3.org/2000/svg"
   xmlns="http://www.w3.org/2000/svg"
   xmlns:sodipodi="http://sodipodi.sourceforge.net/DTD/sodipodi-0.dtd"
   xmlns:inkscape="http://www.inkscape.org/namespaces/inkscape"
   width="50mm"
   height="50mm"
   viewBox="0 0 177.16536 177.16535"
   id="svg2"
   version="1.1"
   inkscape:version="0.91 r13725"
   sodipodi:docname="circle.svg">
  <defs
     id="defs4" />
  <sodipodi:namedview
     id="base"
     pagecolor="#ffffff"
     bordercolor="#666666"
     borderopacity="1.0"
     inkscape:pageopacity="0.0"
     inkscape:pageshadow="2"
     inkscape:zoom="2.8"
     inkscape:cx="60.438862"
     inkscape:cy="72.556181"
     inkscape:document-units="px"
     inkscape:current-layer="layer1"
     showgrid="false"
     inkscape:window-width="1536"
     inkscape:window-height="801"
     inkscape:window-x="-8"
     inkscape:window-y="-8"
     inkscape:window-maximized="1"
     units="mm"
     width="20mm" />
  <metadata
     id="metadata7">
    <rdf:RDF>
      <cc:Work
         rdf:about="">
        <dc:format>image/svg+xml</dc:format>
        <dc:type
           rdf:resource="http://purl.org/dc/dcmitype/StillImage" />
        <dc:title></dc:title>
      </cc:Work>
    </rdf:RDF>
  </metadata>
  <g
     inkscape:label="Layer 1"
     inkscape:groupmode="layer"
     id="layer1"
     transform="translate(0,-875.19685)">
    <path
       style="fill:#000000;fill-opacity:1;fill-rule:nonzero;stroke:none;stroke-width:1px;stroke-linecap:butt;stroke-linejoin:miter;stroke-opacity:1"
       id="path3420"
       d="m 116.85821,891.95399 c -4.94477,-0.3133 -9.85758,0.60443 -14.73953,1.44919 -9.41378,1.94495 -18.794969,4.42036 -27.925112,7.90772 -2.121133,0.81018 -4.211785,1.7392 -6.317679,2.60878 -7.393395,3.29238 -14.671374,7.08907 -21.423369,12.11665 -3.894063,2.89957 -4.682101,3.80407 -8.331854,7.1764 -4.837193,4.91731 -9.110968,10.65713 -12.045361,17.56694 -1.802483,4.24443 -1.977118,5.51097 -3.192223,10.03869 -1.472742,7.06053 -1.9459,14.38706 -1.561817,21.66139 0.227153,4.30217 0.597111,6.36312 1.173606,10.55864 0.952839,5.79215 2.417337,11.47246 4.44207,16.8267 1.054359,2.78821 1.764412,4.20431 2.994942,6.87531 3.050112,6.2055 6.967467,11.6681 11.243367,16.6048 0.875194,1.0104 1.801872,1.9495 2.702808,2.9243 3.519909,3.4804 7.371669,6.525 11.500039,8.771 2.492336,1.3559 3.771115,1.7492 6.388806,2.763 7.717543,2.5961 15.70756,3.186 23.659812,3.4327 -4.507274,-0.028 -9.01658,0.087 -13.521823,-0.085 -1.549217,-0.059 3.098372,-0.1339 4.645383,-0.2523 5.398806,-0.4132 10.687969,-1.3526 15.940779,-2.9892 1.875838,-0.5844 3.72062,-1.3137 5.580929,-1.9705 10.211337,-4.1417 20.097537,-9.8759 28.834167,-17.7142 1.57901,-1.4166 3.07146,-2.977 4.60719,-4.4655 5.99497,-6.2448 11.12331,-13.6413 15.15435,-21.98 1.09112,-2.25713 2.15478,-4.54169 3.07605,-6.91319 0.92602,-2.38374 1.63824,-4.88718 2.45737,-7.33077 1.4963,-5.84175 2.4022,-8.72659 3.29198,-14.74116 0.95523,-6.45708 1.2292,-13.53753 0.65409,-20.07458 -0.19247,-2.18777 -0.58758,-4.3405 -0.88138,-6.51075 -1.26723,-6.25352 -3.34803,-12.17004 -6.31276,-17.47513 -3.01348,-5.39227 -6.83782,-9.88476 -10.64566,-14.37385 -4.63758,-5.08471 -9.56267,-9.20564 -15.34821,-11.99019 -4.51337,-2.17225 -6.47302,-2.62962 -11.20748,-4.17779 -8.24893,-2.31487 -16.676189,-3.43514 -25.114686,-3.88791 -2.230672,-0.11968 -4.463908,-0.1478 -6.695864,-0.2217 0,0 16.655353,-3.21156 16.655353,-3.21156 l 0,0 c 3.37151,0.1722 10.487107,0.49814 13.687527,0.82734 6.20265,0.638 12.3547,2.00144 18.41871,3.70982 5.01447,1.66277 7.0004,2.15351 11.82601,4.40358 1.76039,0.82082 3.52617,1.65149 5.20075,2.71462 1.27875,0.81183 2.45663,1.8552 3.62697,2.88973 3.05372,2.69933 3.98263,3.99133 6.74106,7.18593 4.87808,6.23437 10.17504,12.93526 13.36089,20.7802 1.64999,4.06296 2.39215,8.09547 3.39335,12.4422 0.34022,2.27288 0.82711,4.51922 1.02065,6.8186 0.18426,2.18929 0.15403,4.40187 0.10896,6.60243 -0.20473,10.00177 -2.16496,19.72722 -4.86859,29.10535 -1.76428,5.51076 -2.86461,9.49244 -5.20989,14.67092 -1.70266,3.75955 -4.75155,8.93136 -6.93749,12.26086 -1.25747,1.9152 -2.53732,3.8157 -3.93267,5.5768 -1.36329,1.7208 -2.886,3.2338 -4.32899,4.8507 -1.58616,1.537 -3.12413,3.1542 -4.7585,4.6107 -8.77344,7.8188 -18.65891,13.4908 -28.6613,18.3848 -5.30004,2.0154 -10.62335,4.0322 -16.123541,5.0461 -1.553234,0.2862 -3.123872,0.4035 -4.689106,0.5584 -9.49023,0.9392 -15.706753,0.3855 -27.09482,0.4129 -8.169142,-0.3672 -16.395061,-1.0179 -24.268489,-3.9789 -1.16895,-0.4812 -2.354966,-0.9023 -3.506851,-1.4435 -5.327049,-2.5028 -10.124716,-6.5131 -14.452282,-11.0617 -1.961562,-2.2255 -3.491105,-3.8838 -5.327879,-6.2811 -0.805576,-1.0514 -1.562261,-2.1593 -2.329173,-3.2546 -2.380828,-3.4002 -4.74182,-6.8533 -6.599189,-10.7448 -1.3483238,-3.0185 -1.8711677,-3.999 -2.9548975,-7.1821 -1.8936454,-5.56143 -3.0345327,-11.46958 -3.8585174,-17.40521 -0.5415052,-5.51573 -1.0858486,-11.07367 -1.1086812,-16.64104 -0.023017,-5.61226 0.5304168,-11.20393 1.6700991,-16.63399 1.2222137,-4.68939 1.4253112,-6.14869 3.2830512,-10.54094 3.0507868,-7.21302 7.4551288,-13.23807 12.4949678,-18.37948 1.371156,-1.32156 2.692702,-2.72692 4.113469,-3.96465 2.869751,-2.50003 6.293561,-4.85953 9.402495,-6.829 5.582829,-3.53667 11.390437,-6.45216 17.290284,-9.05956 3.009648,-1.27399 9.405242,-4.0285 12.490876,-5.14967 1.903214,-0.69156 3.83663,-1.24723 5.75728,-1.85957 4.657518,-1.48492 9.304249,-3.06556 14.025793,-4.20888 4.218419,-0.94235 8.45056,-2.00536 12.743972,-2.21424 0,0 20.615409,4.06362 20.615409,4.06362 z"
       inkscape:connector-curvature="0" />
  </g>
</svg>
