<?xml version="1.0" encoding="UTF-8" standalone="no"?>
<!-- Created with Inkscape (http://www.inkscape.org/) -->

<svg
   xmlns:dc="http://purl.org/dc/elements/1.1/"
   xmlns:cc="http://creativecommons.org/ns#"
   xmlns:rdf="http://www.w3.org/1999/02/22-rdf-syntax-ns#"
   xmlns:svg="http://www.w3.org/2000/svg"
   xmlns="http://www.w3.org/2000/svg"
   xmlns:sodipodi="http://sodipodi.sourceforge.net/DTD/sodipodi-0.dtd"
   xmlns:inkscape="http://www.inkscape.org/namespaces/inkscape"
   width="50mm"
   height="50mm"
   viewBox="0 0 177.16536 177.16535"
   id="svg2"
   version="1.1"
   inkscape:version="0.91 r13725"
   sodipodi:docname="cross.svg">
  <defs
     id="defs4" />
  <sodipodi:namedview
     id="base"
     pagecolor="#ffffff"
     bordercolor="#666666"
     borderopacity="1.0"
     inkscape:pageopacity="0.0"
     inkscape:pageshadow="2"
     inkscape:zoom="2.8"
     inkscape:cx="60.438862"
     inkscape:cy="72.556181"
     inkscape:document-units="px"
     inkscape:current-layer="layer1"
     showgrid="false"
     inkscape:window-width="1536"
     inkscape:window-height="801"
     inkscape:window-x="-8"
     inkscape:window-y="-8"
     inkscape:window-maximized="1"
     units="mm"
     width="20mm" />
  <metadata
     id="metadata7">
    <rdf:RDF>
      <cc:Work
         rdf:about="">
        <dc:format>image/svg+xml</dc:format>
        <dc:type
           rdf:resource="http://purl.org/dc/dcmitype/StillImage" />
        <dc:title></dc:title>
      </cc:Work>
    </rdf:RDF>
  </metadata>
  <g
     inkscape:label="Layer 1"
     inkscape:groupmode="layer"
     id="layer1"
     transform="translate(0,-875.19685)">
    <path
       style="fill:#000000;fill-opacity:1;fill-rule:nonzero;stroke:none;stroke-width:1px;stroke-linecap:butt;stroke-linejoin:miter;stroke-opacity:1"
       id="path3378"
       d="m 6.0854411,1048.2162 c 2.5861145,-5.8545 6.0916449,-10.7573 9.4424489,-15.7411 4.412742,-5.4728 8.598266,-11.3144 13.061396,-16.7079 2.101549,-2.5395 4.281926,-4.9478 6.41007,-7.4434 2.415311,-2.8322 4.771393,-5.7648 7.220157,-8.54014 3.432017,-3.8894 6.946277,-7.63363 10.419415,-11.45062 19.478922,-22.78114 38.400994,-46.47343 57.841632,-69.31816 8.82621,-10.4191 17.84242,-20.52854 26.56521,-31.11943 2.39758,-3.05009 1.28576,-1.60129 3.34416,-4.33323 0,0 26.34708,3.29096 26.34708,3.29096 l 0,0 c -2.66904,2.66862 -1.24627,1.22944 -4.2632,4.32749 -10.41023,9.99026 -20.76285,20.10468 -30.96652,30.50665 -6.39627,6.68326 -11.46288,11.89728 -17.79112,18.85756 -14.369046,15.8042 -28.325511,32.38123 -41.503555,50.12216 -2.750997,3.89499 -5.470979,7.83379 -8.25299,11.68516 -2.107373,2.9174 -4.29625,5.717 -6.413941,8.6197 -1.802477,2.4706 -3.558258,5.0074 -5.345892,7.4993 -3.886276,5.417 -7.872515,10.7155 -11.415494,16.5933 -2.014686,3.3568 -3.98211,6.6324 -5.622251,10.3782 -0.255686,0.5838 -1.091898,2.5878 -1.329803,3.4338 -0.102333,0.3639 -0.146639,0.7548 -0.219958,1.1323 0,0 -27.5268449,-1.7926 -27.5268449,-1.7926 z"
       inkscape:connector-curvature="0" />
    <path
       style="fill:#000000;fill-opacity:1;fill-rule:nonzero;stroke:none;stroke-width:1px;stroke-linecap:butt;stroke-linejoin:miter;stroke-opacity:1"
       id="path3398"
       d="m 27.842848,879.47954 c 0.398636,0.63355 0.771926,1.30038 1.195907,1.90063 2.434268,3.44639 5.293596,6.27795 8.104157,9.07269 2.165413,2.15321 7.330619,7.08784 9.362828,9.03766 2.091832,2.21447 4.189352,4.4184 6.275494,6.64341 5.980792,6.37893 11.897495,12.87612 17.898086,19.21832 40.10077,42.38364 -18.463609,-19.81082 20.909085,21.62796 3.350434,3.52626 6.642994,7.15953 9.964485,10.73929 3.14687,3.4042 6.29048,6.81434 9.4406,10.2126 2.87225,3.09849 5.78406,6.12548 8.62654,9.27767 9.007,9.98808 17.7124,20.53138 26.4602,30.95953 5.70223,6.6089 11.25402,13.4859 17.12969,19.7948 2.06811,2.2888 3.91552,4.9201 5.77909,7.521 1.54495,2.0495 3.17026,3.9886 4.80608,5.8974 0.48529,0.6369 1.0807,1.4807 1.64806,2.0043 0.21157,0.1953 0.47288,0.2721 0.67861,0.4794 0.82469,0.8307 0.12992,0.6818 0.85035,0.7162 0,0 -27.46122,3.792 -27.46122,3.792 l 0,0 c -0.69396,-1.4209 -1.80722,-2.4392 -2.66675,-3.6651 -1.69878,-1.9817 -3.42094,-3.9346 -4.89824,-6.2535 -1.71618,-2.4647 -3.46276,-4.8881 -5.21067,-7.3084 -4.74412,-6.653 -9.31422,-13.5472 -14.01289,-20.2628 -4.34197,-6.1295 -5.34562,-7.6489 -10.0495,-13.82001 C 102.84405,984.17043 92.454115,972.14832 82.026057,960.23018 71.935203,949.24665 61.903071,938.1146 51.379611,927.94492 44.294154,921.09766 37.826889,915.46497 30.534496,909.20379 c -2.515252,-2.15957 -5.0536,-4.2657 -7.5804,-6.39856 -7.52788,-6.40471 -15.2072237,-12.53905 -22.15433022,-20.17256 0,0 27.04308222,-3.15313 27.04308222,-3.15313 z"
       inkscape:connector-curvature="0" />
  </g>
</svg>
